# xmcd
#
# Track frame offsets: 
#        150
#        17362
#        45035
#        63900
#        87068
#        104488
#        125718
#        143189
#        165901
#        182808
#        198716
#
# Disc length: 2775 seconds
#
# Revision: 0
# Processed by: cddbd v1.5.2PL0 Copyright (c) Steve Scherf et al.
# Submitted via: ExactAudioCopy v1.0b4
#
DISCID=880ad50b
DTITLE=June Core - Rhythm and Blues
DYEAR=2017
DGENRE=Blues
TTITLE0=Love Is On Me
TTITLE1=Cruisin'
TTITLE2=Were You There
TTITLE3=This Is My Prayer
TTITLE4=If I Ever Needed You
TTITLE5=Rhythm and Blues
TTITLE6=We're Busy
TTITLE7=Standin' On The Corner
TTITLE8=Cry For Me
TTITLE9=Never Too Late
TTITLE10=Rhythm and Blues Reprise
EXTD=
EXTT0=
EXTT1=
EXTT2=
EXTT3=
EXTT4=
EXTT5=
EXTT6=
EXTT7=
EXTT8=
EXTT9=
EXTT10=
PLAYORDER=
